<?xml version="1.0" standalone="no"?><!DOCTYPE svg PUBLIC "-//W3C//DTD SVG 1.1//EN" "http://www.w3.org/Graphics/SVG/1.1/DTD/svg11.dtd"><svg t="1716863140899" class="icon" viewBox="0 0 1024 1024" version="1.1" xmlns="http://www.w3.org/2000/svg" p-id="9133" xmlns:xlink="http://www.w3.org/1999/xlink" width="200" height="200"><path d="M128 96a32 32 0 0 0-32 32v234.666667c0 17.664 14.336 32 32 32h298.666667a32 32 0 0 0 32-32V128a32 32 0 0 0-32-32H128zM597.333333 629.333333a32 32 0 0 0-32 32V896c0 17.664 14.336 32 32 32h298.666667a32 32 0 0 0 32-32v-234.666667a32 32 0 0 0-32-32h-298.666667zM597.333333 96a32 32 0 0 0-32 32v362.666667c0 17.664 14.336 32 32 32h298.666667a32 32 0 0 0 32-32V128a32 32 0 0 0-32-32h-298.666667zM128 501.333333a32 32 0 0 0-32 32V896c0 17.664 14.336 32 32 32h298.666667a32 32 0 0 0 32-32v-362.666667a32 32 0 0 0-32-32H128z" p-id="9134" fill="#1296db"></path></svg>